<svg id="Component_9_50" data-name="Component 9 – 50" xmlns="http://www.w3.org/2000/svg" width="48" height="48.003" viewBox="0 0 48 48.003">
  <path id="Union_1" data-name="Union 1" d="M-10810.972-9620.029A23.848,23.848,0,0,1-10818-9637h0v0a24,24,0,0,1,24-24,24,24,0,0,1,24,24v0h0a23.832,23.832,0,0,1-7.029,16.969A23.845,23.845,0,0,1-10794-9613,23.849,23.849,0,0,1-10810.972-9620.029ZM-10775-9637v0a18.874,18.874,0,0,0-5.565-13.434A18.87,18.87,0,0,0-10794-9656a18.869,18.869,0,0,0-13.434,5.565A18.87,18.87,0,0,0-10813-9637v0Z" transform="translate(10818 9661.001)" fill="#4d94ff"/>
</svg>
